<svg width="50" height="50" viewBox="0 0 50 50" fill="none" xmlns="http://www.w3.org/2000/svg">
<g opacity="0.5">
<path d="M40.1925 14.885C38.1772 14.885 36.5376 16.5246 36.5376 18.5399C36.5376 19.3229 36.7858 20.0485 37.2067 20.6439L31.9837 26.1939C31.4254 25.8479 30.7679 25.6474 30.0642 25.6474C29.1068 25.6474 28.2347 26.0178 27.5823 26.6224L23.2718 23.533C23.476 23.0775 23.5905 22.5735 23.5905 22.043C23.5905 20.0277 21.9509 18.3881 19.9356 18.3881C17.9204 18.3881 16.2808 20.0277 16.2808 22.043C16.2808 22.713 16.4628 23.3411 16.7788 23.8815L11.9882 28.1621C11.3791 27.7076 10.6241 27.4381 9.80732 27.4381C7.79199 27.4381 6.15234 29.0777 6.15234 31.093C6.15234 33.1084 7.79199 34.7479 9.80723 34.7479C11.8225 34.7479 13.4621 33.1084 13.4621 31.093C13.4621 30.423 13.2801 29.795 12.9641 29.2544L17.7547 24.9739C18.3639 25.4284 19.1188 25.6978 19.9356 25.6978C20.893 25.6978 21.7651 25.3273 22.4175 24.7228L26.728 27.8124C26.5238 28.2677 26.4093 28.7717 26.4093 29.3023C26.4093 31.3176 28.0489 32.9572 30.0642 32.9572C32.0794 32.9572 33.719 31.3176 33.719 29.3023C33.719 28.5193 33.4708 27.7937 33.0499 27.1983L38.2729 21.6483C38.8312 21.9943 39.4888 22.1948 40.1925 22.1948C42.2078 22.1948 43.8474 20.5552 43.8474 18.5399C43.8474 16.5246 42.2077 14.885 40.1925 14.885ZM9.80732 33.2831C8.59971 33.2831 7.61729 32.3006 7.61729 31.093C7.61729 29.8854 8.5998 28.903 9.80732 28.903C11.0148 28.903 11.9974 29.8854 11.9974 31.093C11.9974 32.3006 11.0148 33.2831 9.80732 33.2831ZM19.9357 24.233C18.7281 24.233 17.7457 23.2504 17.7457 22.0429C17.7457 20.8353 18.7281 19.8529 19.9357 19.8529C21.1434 19.8529 22.1258 20.8353 22.1258 22.0429C22.1258 23.2077 21.1439 24.233 19.9357 24.233ZM30.0642 31.4923C28.8566 31.4923 27.8741 30.5099 27.8741 29.3023C27.8741 28.0947 28.8566 27.1123 30.0642 27.1123C31.2718 27.1123 32.2542 28.0947 32.2542 29.3023C32.2542 30.5099 31.2717 31.4923 30.0642 31.4923ZM40.1927 20.7299C38.9852 20.7299 38.0026 19.7475 38.0026 18.5399C38.0025 17.3323 38.9851 16.3499 40.1927 16.3499C41.4003 16.3499 42.3827 17.3323 42.3827 18.5399C42.3827 19.7475 41.4002 20.7299 40.1927 20.7299Z" fill="white"/>
<path d="M46.5716 4.4377H42.2477C41.8432 4.4377 41.5152 4.76562 41.5152 5.17012C41.5152 5.57461 41.8432 5.90254 42.2477 5.90254H46.5716C47.0432 5.90254 47.4268 6.28613 47.4268 6.75771V9.05801C47.4268 9.52949 47.0432 9.91309 46.5716 9.91309H11.0952C10.7004 9.91309 10.3628 10.2501 10.3628 10.6455C10.3628 11.0389 10.7026 11.3779 11.0952 11.3779H45.8391V39.485H4.16056V11.3779C4.16056 11.3779 8.15948 11.3779 8.16554 11.3779C8.55626 11.3779 8.89796 11.0362 8.89796 10.6455C8.89796 10.2484 8.56193 9.91309 8.16554 9.91309H3.42814C2.95665 9.91309 2.57306 9.52949 2.57306 9.05801V6.75771C2.57306 6.28613 2.95665 5.90254 3.42814 5.90254H22.2493H27.7504H39.3179C39.7224 5.90254 40.0503 5.57461 40.0503 5.17012C40.0503 4.76562 39.7224 4.4377 39.3179 4.4377H28.4828V3.48291C28.4828 1.5625 26.9204 0 24.9999 0C23.0793 0 21.5169 1.5625 21.5169 3.48301V4.43779H3.42814C2.14894 4.43779 1.10822 5.47852 1.10822 6.75781V9.05811C1.10822 10.0814 1.77443 10.9515 2.69572 11.2589V40.2175C2.69572 40.622 3.02365 40.9499 3.42814 40.9499H24.2675V43.7313C22.8675 44.063 21.8225 45.3227 21.8225 46.8227C21.8224 48.5746 23.2479 50 24.9999 50C26.752 50 28.1774 48.5746 28.1774 46.8226C28.1774 45.3227 27.1323 44.063 25.7323 43.7313V40.9498H46.5716C46.9761 40.9498 47.304 40.6219 47.304 40.2174V11.2588C48.2253 10.9514 48.8916 10.0813 48.8916 9.05801V6.75771C48.8915 5.47852 47.8508 4.4377 46.5716 4.4377ZM24.9999 1.46484C26.1127 1.46484 27.018 2.37021 27.018 3.48301V4.43779H22.9818V3.48301C22.9818 2.37021 23.8871 1.46484 24.9999 1.46484ZM26.7125 46.8226C26.7125 47.7669 25.9443 48.5352 24.9999 48.5352C24.0556 48.5352 23.2873 47.7669 23.2873 46.8226C23.2873 45.8988 24.0231 45.1455 24.9391 45.1131C24.9592 45.1147 24.9794 45.1161 24.9999 45.1161C25.0204 45.1161 25.0406 45.1147 25.0608 45.1131C25.9768 45.1455 26.7125 45.8987 26.7125 46.8226Z" fill="white"/>
</g>
</svg>
