<svg xmlns="http://www.w3.org/2000/svg" aria-hidden="true" style="position:absolute;width:0;height:0;overflow:hidden"><defs><symbol id="services_3" viewBox="0 0 51 32"><path fill="#fff" d="M28.354 19.453a.396.396 0 1 0 0-.793.396.396 0 0 0 0 .793zM28.422 20.752a.395.395 0 0 0-.449.333c-.108.73-.725 1.335-1.651 1.62-.989.304-2.362.202-3.2-.71a.395.395 0 1 0-.583.535c.485.528 1.143.888 1.905 1.041a4.403 4.403 0 0 0 2.11-.109c1.224-.376 2.047-1.221 2.201-2.26a.395.395 0 0 0-.333-.449z" opacity=".5" style="fill:var(--color1, #fff)"/><path fill="#fff" d="M33.92 17.254c-.719-.834-1.711-1.374-2.906-1.591 1.144-.772 2.13-1.54 2.833-2.21 1.072-1.022 1.432-1.74 1.132-2.26-.334-.579-1.299-.575-3.035.013-1.467.496-3.296 1.359-5.147 2.428-.32.185-.637.374-.947.564-.23-.649-.078-1.391.429-2.034.38-.482.465-1.094.221-1.597-.255-.528-.815-.843-1.499-.845h-.019c-2.413 0-4.774.952-6.646 2.681-1.875 1.731-3.023 4.023-3.232 6.453-.252 2.926.684 5.709 2.634 7.834a10.143 10.143 0 0 0 7.452 3.285c1.518 0 2.943-.278 4.236-.826a9.53 9.53 0 0 0 3.12-2.126 9.408 9.408 0 0 0 1.93-2.887 8.376 8.376 0 0 0 .687-3.126c.021-1.49-.408-2.789-1.243-3.757zm-8.024-2.153c.419-.264.855-.527 1.296-.782 1.712-.989 3.417-1.803 4.801-2.293 1.523-.539 2.147-.504 2.292-.435-.013.092-.127.502-1.127 1.422-.835.769-2.054 1.673-3.432 2.545a38.81 38.81 0 0 1-3.232 1.834 5.96 5.96 0 0 0-1.122-1.956c.172-.113.346-.225.523-.336zm-.118 2.643c-1.117.53-2.142.934-2.96 1.168a1.96 1.96 0 0 0-.597-1.052c.613-.591 1.475-1.276 2.491-1.977a5.178 5.178 0 0 1 1.067 1.861zm8.594 3.255c-.056 3.936-3.583 8.185-9.182 8.185a9.35 9.35 0 0 1-6.869-3.029c-1.799-1.96-2.661-4.528-2.429-7.231.399-4.638 4.477-8.411 9.09-8.411H25c.378.001.665.146.787.398.112.232.063.517-.13.763-.713.904-.892 2.016-.489 2.953-.212.137-.421.274-.622.41l-.003.002c-1.258.849-2.32 1.693-3.027 2.404a1.966 1.966 0 0 0-1.625.159c-.822.475-1.901 2.687-2.109 3.126a.394.394 0 0 0 .326.564c.219.018.84.062 1.53.062.839 0 1.78-.066 2.231-.326.488-.282.826-.752.944-1.294.97-.255 2.238-.753 3.61-1.422a38.123 38.123 0 0 0 3.534-1.964l.007.001c3.297.095 4.438 2.464 4.407 4.651zm-12.306-1.611a1.183 1.183 0 0 1-.591.953c-.374.216-1.659.245-2.714.197.486-.938 1.153-2.036 1.528-2.252a1.184 1.184 0 0 1 1.621.434c.118.204.172.435.157.668z" opacity=".5" style="fill:var(--color1, #fff)"/><path fill="#fff" d="M22.025 12.168c-.872 0-1.582.71-1.582 1.582s.71 1.582 1.582 1.582c.872 0 1.582-.71 1.582-1.582s-.71-1.582-1.582-1.582zm0 2.373a.792.792 0 0 1 0-1.582.792.792 0 0 1 0 1.582zM20.048 22.797c-.872 0-1.582.71-1.582 1.582s.71 1.582 1.582 1.582c.872 0 1.582-.71 1.582-1.582s-.71-1.582-1.582-1.582zm0 2.373a.792.792 0 0 1 0-1.582.792.792 0 0 1 0 1.582zM24.003 25.17c-.872 0-1.582.71-1.582 1.582s.71 1.582 1.582 1.582c.872 0 1.582-.71 1.582-1.582s-.71-1.582-1.582-1.582zm0 2.374a.792.792 0 0 1 0-1.582.792.792 0 0 1 0 1.582zM28.75 24.379c-.872 0-1.582.71-1.582 1.582s.71 1.582 1.582 1.582c.872 0 1.582-.71 1.582-1.582s-.71-1.582-1.582-1.582zm0 2.374a.792.792 0 0 1 0-1.582.792.792 0 0 1 0 1.582zM31.915 20.424c-.872 0-1.582.71-1.582 1.582s.71 1.582 1.582 1.582 1.582-.71 1.582-1.582c0-.872-.71-1.582-1.582-1.582zm0 2.373a.792.792 0 0 1 0-1.582.792.792 0 0 1 0 1.582z" opacity=".5" style="fill:var(--color1, #fff)"/><path d="m4.3 14.338-4.3-4.3 5.873-1.574-1.574 5.873zm-.396-1.474.89-3.32-3.32.889 2.43 2.43zM44.907 9.138l5.511 2.57-4.981 3.488-.53-6.057zm.875 1.25.299 3.424 2.815-1.971-3.115-1.452zM27.9 0l1.403 2.43h-2.806L27.9 0zM49.16 25.449l-.726 2.711-1.984-1.984 2.711-.726zM7.913 28.027l2.43 1.403-2.43 1.403v-2.806z" style="fill:var(--color2, #ff455b)"/></symbol><symbol id="about_us_4" viewBox="0 0 33 32"><path fill="#fff" d="M15.056 12.525c-.571 0-1.035.464-1.035 1.035 0 .577.464 1.053 1.034 1.06h.014c.28 0 .542-.109.74-.307.202-.202.311-.47.307-.754a1.058 1.058 0 0 0-1.06-1.034zm.622 1.658a.857.857 0 0 1-.621.253.873.873 0 0 1-.852-.876c0-.469.382-.851.851-.851.477 0 .87.382.876.852a.857.857 0 0 1-.253.621z" opacity=".5" style="fill:var(--color1, #fff)"/><path fill="#fff" d="M19.813 12.111h-.205l-1.015-2.002a.36.36 0 0 0-.324-.199h-.793a.277.277 0 1 0 0 .554h.676l.835 1.648h-.544c-.588 0-1.097.35-1.328.852a.452.452 0 0 0-.72-.001 1.464 1.464 0 0 0-1.328-.851h-.546l.431-.85c.023-.045.005-.101-.041-.124s-.101-.005-.124.041l-.473.934h-.207l.973-1.919a.177.177 0 0 1 .159-.098h.793c.051 0 .092.041.092.092s-.041.092-.092.092h-.733a.091.091 0 0 0-.082.051l-.248.489c-.023.045-.005.101.041.124s.101.005.124-.041l.222-.439h.676a.277.277 0 1 0 0-.554h-.793a.36.36 0 0 0-.324.199L13.9 12.111h-.203a.092.092 0 0 0-.092.092v1.369c0 .806.656 1.462 1.462 1.462a1.464 1.464 0 0 0 1.42-1.812.269.269 0 0 1 .536.006 1.46 1.46 0 0 0 1.232 1.794.092.092 0 0 0 .012-.184 1.282 1.282 0 0 1-1.1-1.265c0-.704.573-1.277 1.277-1.277h1.277v1.277a1.27 1.27 0 0 1-1.078 1.262c-.05.008-.085.055-.077.105s.055.085.105.077a1.464 1.464 0 0 0 1.235-1.444v-1.369a.092.092 0 0 0-.092-.092zm-4.745 2.739a1.279 1.279 0 0 1-1.277-1.277v-1.277h1.277a1.28 1.28 0 0 1 1.278 1.278c0 .704-.573 1.277-1.277 1.277zm3.224-4.52a.092.092 0 0 0-.082-.051h-.733c-.051 0-.092-.041-.092-.092s.041-.092.092-.092h.793c.068 0 .128.037.159.098l.973 1.919h-.207l-.903-1.782z" opacity=".5" style="fill:var(--color1, #fff)"/><path fill="#fff" d="M19.492 13.561c0-.571-.465-1.035-1.035-1.035-.577 0-1.053.464-1.06 1.034-.004.285.105.553.307.754.198.198.461.307.74.307h.014a1.058 1.058 0 0 0 1.034-1.06zm-1.037.875c-.235.003-.455-.087-.621-.253s-.256-.387-.253-.621a.873.873 0 0 1 .876-.852c.469 0 .851.382.851.851 0 .477-.382.87-.852.876z" opacity=".5" style="fill:var(--color1, #fff)"/><path d="M10.03 10.759 8.693 9.422l1.827-.489-.489 1.827zm-.123-.459.277-1.033-1.033.277.756.756zM22.66 9.141l1.714.799-1.549 1.085-.165-1.884zm.272.389.093 1.065.876-.613-.969-.452zM17.37 6.299l.437.756h-.873l.436-.756zM23.983 14.215l-.226.843-.617-.617.843-.226zM11.154 15.016l.756.436-.756.436v-.873z" style="fill:var(--color2, #ff455b)"/></symbol><symbol id="contact_2" viewBox="0 0 20 32"><path d="m9.034 29.125-2.696 2.696-.987-3.682 3.682.987zm-.924.248-2.081-.558.558 2.082 1.524-1.524zM5.773 3.665 7.384.21l2.187 3.123-3.798.332zm.784-.549 2.147-.188-1.236-1.765-.911 1.953zM.044 14.328l1.524-.88v1.76l-1.524-.88zM16 .999l1.7.455-1.244 1.244-.455-1.7zM17.617 26.86l.88-1.524.88 1.524h-1.76z" style="fill:var(--color2, #ff455b)"/><path fill="#fff" d="M12.571 10.159a3.703 3.703 0 0 0-3.699 3.699c0 1.824 1.265 4.215 2.327 5.899a.233.233 0 0 0 .394-.248c-1.864-2.958-2.255-4.706-2.255-5.651 0-1.783 1.451-3.234 3.234-3.234s3.234 1.451 3.234 3.234c0 2.896-3.384 7.311-3.418 7.355a.232.232 0 0 0 .368.285c.144-.186 3.515-4.585 3.515-7.639a3.703 3.703 0 0 0-3.699-3.699z" opacity=".5" style="fill:var(--color1, #fff)"/><path fill="#fff" d="M12.571 12.678a.233.233 0 0 0 0-.466c-.907 0-1.645.738-1.645 1.645s.738 1.645 1.645 1.645a1.647 1.647 0 0 0 1.311-2.639c-.078-.102-.224-.122-.326-.045s-.122.224-.045.326a1.181 1.181 0 0 1-.94 1.892c-.65 0-1.18-.529-1.18-1.18 0-.65.529-1.18 1.18-1.18z" opacity=".5" style="fill:var(--color1, #fff)"/></symbol><symbol id="services_2" viewBox="0 0 51 32"><path fill="#fff" d="M31.268 15.751a1.482 1.482 0 0 0-1.209 2.332l-2.116 2.248a1.473 1.473 0 0 0-1.783.174l-1.746-1.251a1.482 1.482 0 0 0-1.351-2.084 1.482 1.482 0 0 0-1.278 2.225l-1.941 1.734a1.482 1.482 0 0 0-2.363 1.187c0 .816.664 1.48 1.48 1.48a1.482 1.482 0 0 0 1.278-2.225l1.941-1.734a1.474 1.474 0 0 0 1.888-.102l1.746 1.251a1.482 1.482 0 0 0 1.351 2.084 1.482 1.482 0 0 0 1.209-2.332l2.116-2.248a1.482 1.482 0 0 0 2.258-1.259c0-.816-.664-1.48-1.48-1.48zM18.96 23.203a.888.888 0 0 1 0-1.774.888.888 0 0 1 0 1.774zm4.103-3.666a.888.888 0 0 1 0-1.774c.489 0 .887.398.887.887a.9.9 0 0 1-.887.887zm4.102 2.941a.888.888 0 0 1 0-1.774.888.888 0 0 1 0 1.774zm4.103-4.36a.888.888 0 0 1 0-1.774.888.888 0 0 1 0 1.774z" opacity=".5" style="fill:var(--color1, #fff)"/><path fill="#fff" d="M33.852 11.519h-1.751a.297.297 0 0 0 0 .594h1.751c.191 0 .346.155.346.346v.932a.346.346 0 0 1-.346.346h-14.37c-.16 0-.297.136-.297.297s.138.297.297.297h14.073v11.385H16.673V14.331h1.622a.304.304 0 0 0 .297-.297.301.301 0 0 0-.297-.297h-1.919a.346.346 0 0 1-.346-.346v-.932c0-.191.155-.346.346-.346h14.538a.297.297 0 0 0 0-.594h-4.389v-.387c0-.778-.633-1.411-1.411-1.411s-1.411.633-1.411 1.411v.387h-7.327a.941.941 0 0 0-.94.94v.932c0 .415.27.767.643.891v11.73c0 .164.133.297.297.297h8.441v1.127a1.288 1.288 0 1 0 1.584 1.252c0-.608-.423-1.118-.99-1.252v-1.127h8.441a.297.297 0 0 0 .297-.297v-11.73a.942.942 0 0 0 .643-.891v-.932a.941.941 0 0 0-.94-.94zm-8.738-1.204c.451 0 .817.367.817.818v.387h-1.635v-.387c0-.451.367-.818.817-.818zm.694 18.373a.694.694 0 1 1-.719-.692l.025.001.025-.001a.694.694 0 0 1 .669.692z" opacity=".5" style="fill:var(--color1, #fff)"/><path d="m4.3 14.338-4.3-4.3 5.873-1.574-1.574 5.873zm-.396-1.474.89-3.32-3.32.889 2.43 2.43zM44.907 9.138l5.511 2.57-4.981 3.488-.53-6.057zm.875 1.25.299 3.424 2.815-1.971-3.115-1.452zM27.9 0l1.403 2.43h-2.806L27.9 0zM49.16 25.449l-.726 2.711-1.984-1.984 2.711-.726zM7.913 28.027l2.43 1.403-2.43 1.403v-2.806z" style="fill:var(--color2, #ff455b)"/></symbol><symbol id="arrow_right" viewBox="0 0 83 32"><path d="M81.414 17.414a2 2 0 0 0 0-2.828L68.686 1.858a2 2 0 0 0-2.829 2.828L77.171 16 65.857 27.314a2 2 0 0 0 2.829 2.829l12.728-12.728zM0 18h80v-4H0v4z" opacity=".8"/></symbol><symbol id="services_5" viewBox="0 0 51 32"><path fill="#fff" d="M32.394 9.722h-.871c-.383 0-.383.593 0 .593h.871a1.63 1.63 0 0 1 1.631 1.625v6.867a1.63 1.63 0 0 1-1.631 1.625h-.988a.294.294 0 0 0-.18.061l-1.812 1.386v-1.151a.297.297 0 0 0-.297-.297h-3.611c-.296 0-.58-.078-.831-.226v-3.331a1.81 1.81 0 0 0-.8-1.501V11.94a1.63 1.63 0 0 1 1.631-1.625h4.158c.383 0 .383-.593 0-.593h-4.158a2.223 2.223 0 0 0-2.224 2.218v3.173a1.841 1.841 0 0 0-.423-.05h-5.432a1.817 1.817 0 0 0-1.817 1.812v.641c0 .383.593.383.593 0v-.641c0-.672.549-1.219 1.223-1.219h5.432c.675 0 1.223.547 1.223 1.219v3.449a.299.299 0 0 0 0 .079v1.888c0 .037-.002.074-.006.111h-.612c-.674 0-1.236.487-1.353 1.126a.28.28 0 0 0-.077.043l-1.327 1.025v-.79a.297.297 0 0 0-.297-.297h-2.984a1.222 1.222 0 0 1-1.223-1.219v-2.994c0-.383-.593-.383-.593 0v2.994c0 .999.815 1.812 1.817 1.812h2.687v1.097c0 .238.289.381.478.235l1.497-1.156v3.338c0 .757.617 1.372 1.375 1.372h1.821v.692c0 .238.289.381.478.235l1.201-.927h.355c.758 0 1.375-.616 1.375-1.372v-.527c0-.383-.593-.383-.593 0v.527a.782.782 0 0 1-.782.779h-.456a.296.296 0 0 0-.181.062l-.803.62v-.385a.297.297 0 0 0-.297-.297h-2.118a.781.781 0 0 1-.782-.779v-3.843c0-.429.351-.779.782-.779h3.855c.431 0 .782.349.782.779v1.457c0 .383.593.383.593 0v-1.457c0-.757-.617-1.372-1.375-1.372h-2.647c.002-.037.003-1.536.003-1.536.262.105.542.16.831.16h3.315v1.454c0 .237.288.38.477.236l2.209-1.69h.887a2.223 2.223 0 0 0 2.224-2.218V11.94a2.224 2.224 0 0 0-2.224-2.218z" opacity=".5" style="fill:var(--color1, #fff)"/><path fill="#fff" d="M29.691 11.914a.618.618 0 0 0-.761.591c0 .425-.155.835-.436 1.154l-.818.925a.296.296 0 0 0-.249-.135h-1.596a.297.297 0 0 0-.297.297v3.591c0 .164.133.297.297.297h1.596c.12 0 .223-.071.27-.174.323.197.698.304 1.078.304h2.82a.776.776 0 0 0 .766-.804c-.009-.19.001-2.747.001-2.803a.768.768 0 0 0-.766-.767l-1.467-.004.061-.144a2.316 2.316 0 0 0-.122-2.039.603.603 0 0 0-.378-.288c.161.041-.162-.041 0 0s-.377-.096 0 0zm-2.56 6.126h-1.003v-2.997h1.003v2.997zm4.466-3.057c.096 0 .174.078.174.174l-.001.417c-.004 1.147-.007 2.233.001 2.414a.175.175 0 0 1-.174.183h-2.82c-.336 0-.665-.116-.927-.328l-.125-.101v-2.316l1.214-1.374c.377-.427.585-.977.585-1.547 0-.017.023-.021.03-.008a1.72 1.72 0 0 1 .091 1.514l-.234.555a.296.296 0 0 0 .273.412l1.914.006zM18.15 20.027a.297.297 0 0 0 0 .594h.875l-.163.988a.297.297 0 0 0 .585.097l.179-1.085h.716l-.163.988a.297.297 0 0 0 .585.097l.179-1.085h1.191a.297.297 0 0 0 0-.594h-1.092l.12-.724h.973a.297.297 0 0 0 0-.594h-.875l.163-.988a.297.297 0 0 0-.585-.097l-.179 1.085h-.716l.163-.988a.297.297 0 0 0-.585-.097l-.179 1.085h-1.191a.297.297 0 0 0 0 .594h1.092l-.12.724h-.973zm1.694-.723h.716l-.12.724h-.716l.12-.724zM25.388 24.526a.998.998 0 0 0-.878-.197c-.41.099-.823.483-.823 1.114 0 .393.143.734.438 1.043.241.252.589.492 1.128.778a.296.296 0 0 0 .278 0c.94-.498 1.566-.999 1.566-1.821 0-.635-.428-1.014-.852-1.108a.991.991 0 0 0-.856.192zm1.115.916c0 .443-.294.771-1.111 1.221-.817-.45-1.111-.778-1.111-1.221 0-.33.191-.494.37-.537a.409.409 0 0 1 .478.227.298.298 0 0 0 .533-.01c.096-.206.298-.242.455-.207.187.042.388.202.388.529z" opacity=".5" style="fill:var(--color1, #fff)"/><path d="m4.3 14.338-4.3-4.3 5.873-1.574-1.574 5.873zm-.396-1.474.89-3.32-3.32.889 2.43 2.43zM44.907 9.138l5.511 2.57-4.981 3.488-.53-6.057zm.875 1.25.299 3.424 2.815-1.971-3.115-1.452zM27.9 0l1.403 2.43h-2.806L27.9 0zM49.16 25.449l-.726 2.711-1.984-1.984 2.711-.726zM7.913 28.027l2.43 1.403-2.43 1.403v-2.806z" style="fill:var(--color2, #ff455b)"/></symbol><symbol id="support_99" viewBox="0 0 112 32"><path fill="none" stroke="#fff" stroke-width="4.426" d="M29.617 16c0 7.52-6.097 13.617-13.617 13.617S2.383 23.52 2.383 16C2.383 8.48 8.48 2.383 16 2.383S29.617 8.48 29.617 16z" style="stroke:var(--color1, #000)"/><path fill="none" stroke="#fff" stroke-width=".681" d="M29.617 16c0 7.52-6.097 13.617-13.617 13.617S2.383 23.52 2.383 16C2.383 8.48 8.48 2.383 16 2.383S29.617 8.48 29.617 16z" style="stroke:var(--color1, #989cac)"/><path d="M16 2.383a.657.657 0 0 0-.681-.665C7.739 2.073 1.702 8.332 1.702 16c0 7.896 6.401 14.298 14.298 14.298S30.298 23.897 30.298 16c0-6.746-4.672-12.401-10.957-13.905a.657.657 0 0 0-.792.524.71.71 0 0 0 .539.815c5.654 1.384 9.849 6.485 9.849 12.565 0 7.144-5.792 12.936-12.936 12.936S3.065 23.143 3.065 15.999c0-6.916 5.427-12.565 12.255-12.919a.709.709 0 0 0 .681-.698z" style="fill:var(--color2, #ff455b)"/><path fill="#fff" d="M11.576 13.971c.519 0 .917.182 1.195.545.282.364.423.884.423 1.563 0 .498-.065.923-.196 1.275s-.319.619-.564.803a1.427 1.427 0 0 1-.882.276c-.245 0-.486-.047-.723-.141a1.99 1.99 0 0 1-.625-.417l.159-.3c.212.184.413.319.601.404.192.082.388.123.588.123.396 0 .705-.176.925-.527.221-.355.331-.854.331-1.495v-.613l.074.165c-.033.225-.11.421-.233.588-.118.163-.272.29-.46.38a1.47 1.47 0 0 1-.619.129c-.274 0-.513-.057-.717-.172s-.364-.274-.478-.478a1.48 1.48 0 0 1-.172-.723c0-.266.059-.502.178-.711.118-.212.282-.378.49-.496s.443-.178.705-.178zm.018.331c-.302 0-.547.096-.735.288-.184.192-.276.447-.276.766 0 .315.094.568.282.76.188.188.435.282.741.282.204 0 .386-.043.545-.129a.98.98 0 0 0 .374-.368c.09-.159.135-.341.135-.545 0-.212-.045-.396-.135-.552a.926.926 0 0 0-.374-.368 1.114 1.114 0 0 0-.558-.135zm3.656-.331c.519 0 .917.182 1.195.545.282.364.423.884.423 1.563 0 .498-.065.923-.196 1.275s-.319.619-.564.803a1.427 1.427 0 0 1-.882.276c-.245 0-.486-.047-.723-.141a1.99 1.99 0 0 1-.625-.417l.159-.3c.212.184.413.319.601.404.192.082.388.123.588.123.396 0 .705-.176.925-.527.221-.355.331-.854.331-1.495v-.613l.074.165c-.033.225-.11.421-.233.588-.118.163-.272.29-.46.38a1.47 1.47 0 0 1-.619.129c-.274 0-.513-.057-.717-.172s-.364-.274-.478-.478a1.48 1.48 0 0 1-.172-.723c0-.266.059-.502.178-.711.118-.212.282-.378.49-.496s.443-.178.705-.178zm.018.331c-.302 0-.547.096-.735.288-.184.192-.276.447-.276.766 0 .315.094.568.282.76.188.188.435.282.741.282.204 0 .386-.043.545-.129a.98.98 0 0 0 .374-.368c.09-.159.135-.341.135-.545 0-.212-.045-.396-.135-.552a.926.926 0 0 0-.374-.368 1.114 1.114 0 0 0-.558-.135zM18.948 17.044a.637.637 0 0 1-.534-.253c-.13-.172-.195-.434-.195-.786 0-.356.065-.616.195-.782.13-.168.308-.253.534-.253s.402.084.529.253c.13.165.195.426.195.782 0 .353-.065.615-.195.786a.626.626 0 0 1-.529.253zm0-.229a.355.355 0 0 0 .334-.191c.073-.13.11-.337.11-.62 0-.28-.037-.483-.11-.61-.07-.13-.181-.195-.334-.195s-.265.065-.338.195c-.07.127-.105.33-.105.61 0 .283.035.489.105.62a.364.364 0 0 0 .338.191zm-.052 1.568 1.964-3.393h.272l-1.959 3.393h-.276zm2.182.019a.637.637 0 0 1-.534-.253c-.13-.172-.195-.434-.195-.786 0-.356.065-.616.195-.782.13-.168.308-.253.534-.253s.402.084.529.253c.13.165.195.426.195.782 0 .353-.065.615-.195.786a.626.626 0 0 1-.529.253zm0-.229a.355.355 0 0 0 .334-.191c.073-.13.11-.337.11-.62 0-.28-.037-.483-.11-.61-.07-.13-.181-.195-.334-.195s-.265.065-.338.195c-.07.127-.105.33-.105.61 0 .283.035.489.105.62a.364.364 0 0 0 .338.191z" style="fill:var(--color1, #fff)"/></symbol><symbol id="about_us_1" viewBox="0 0 33 32"><path fill="#fff" d="M19.492 12.473c.133-.264.237-.53.309-.792.227-.82.117-1.507-.31-1.934s-1.113-.537-1.934-.31a4.404 4.404 0 0 0-.792.309 4.18 4.18 0 0 0-.975-.355c-.737-.162-1.358-.035-1.749.356-.251.251-.396.603-.421 1.019-.022.374.054.804.219 1.246a.583.583 0 0 0 0 .918c-.165.442-.241.872-.219 1.246.024.416.17.768.421 1.019.28.28.673.425 1.148.425.095 0 .194-.006.296-.018a3.898 3.898 0 0 0 1.281-.406c.264.132.529.237.791.309.279.077.543.116.786.116.471 0 .866-.144 1.148-.425.391-.391.517-1.012.356-1.749a4.226 4.226 0 0 0-.355-.975zm-1.884-2.856c.753-.209 1.376-.115 1.753.262s.471 1 .262 1.754a4.152 4.152 0 0 1-.238.639 6.095 6.095 0 0 0-.653-.941.585.585 0 0 0 .002-.72l-.146.113a.402.402 0 1 1-.113-.099l.095-.159a.58.58 0 0 0-.66.043 6.006 6.006 0 0 0-.941-.653c.214-.1.428-.18.639-.238zm-3.434.262c.5-.5 1.416-.481 2.391-.024a6.282 6.282 0 0 0-1.369 1.047 6.442 6.442 0 0 0-.827 1.009.603.603 0 0 0-.364.012c-.32-.873-.26-1.614.169-2.043zm1.022 5.557c-.418 0-.774-.122-1.022-.37-.429-.429-.489-1.17-.169-2.043a.57.57 0 0 0 .364.011c.233.354.512.694.827 1.01.426.426.893.781 1.368 1.047-.489.229-.959.346-1.369.346zm1.571-.446a6.033 6.033 0 0 1-1.44-1.077 6.314 6.314 0 0 1-.79-.959.586.586 0 0 0 .25-.533l-.184.016a.4.4 0 1 1-.04-.144l.165-.083a.589.589 0 0 0-.19-.22c.224-.336.489-.658.79-.959a6.033 6.033 0 0 1 1.44-1.077c.34.179.684.41 1.017.689a.585.585 0 0 0 .811.811c.279.333.51.677.689 1.017a6.014 6.014 0 0 1-1.228 1.586.585.585 0 0 0-.737-.015l.113.146a.401.401 0 1 1-.099.112l-.159-.095a.582.582 0 0 0-.022.558c-.13.083-.259.158-.387.225zm2.594.076c-.378.378-1 .471-1.753.262a4.005 4.005 0 0 1-.638-.238 5.63 5.63 0 0 0 .292-.175.585.585 0 0 0 .916-.716l.161-.155a6.313 6.313 0 0 0 1.047-1.369c.457.975.475 1.892-.024 2.391z" opacity=".5" style="fill:var(--color1, #fff)"/><path fill="#fff" d="M18.283 13.428h-.191v-.466a.464.464 0 0 0-.337-.445l-.069-.019-.05.178.069.02a.278.278 0 0 1 .202.267v.466h-.333v-.253h-.185v.253h-.832v.185h1.725v-.185z" opacity=".5" style="fill:var(--color1, #fff)"/><path fill="#fff" d="m17.073 12.517.385.109.05-.178-.378-.107v-.245a.647.647 0 0 0 .283-.535v-.271a.647.647 0 0 0-1.294 0v.271a.65.65 0 0 0 .283.535v.245l-.624.176a.465.465 0 0 0-.337.445v.466h-.191v.185h1.121v-.185h-.228v-.253h-.185v.253h-.333v-.466c0-.124.083-.233.202-.267l.632-.178a.415.415 0 0 0 .612 0zm-.306-1.69c.255 0 .462.207.462.462v.103l-.194-.257h-.704a.464.464 0 0 1 .436-.308zm-.462.733v-.24h.638l.271.358a.463.463 0 0 1-.909-.118zm.284.821v-.199a.661.661 0 0 0 .358 0v.199a.231.231 0 0 1-.358 0z" opacity=".5" style="fill:var(--color1, #fff)"/><path fill="#fff" d="m17.256 12.952-.26-.073.05-.178.26.073-.05.178zM17.661 12.874l-.05.178-.178-.05.05-.178.178.05zM18.179 10.877h.185v.185h-.185v-.185zM17.587 14.413h.185v.185h-.185v-.185zM14.111 12.38h.185v.185h-.185v-.185z" opacity=".5" style="fill:var(--color1, #fff)"/><path d="M10.03 10.759 8.693 9.422l1.827-.489-.489 1.827zm-.123-.459.277-1.033-1.033.277.756.756zM22.66 9.141l1.714.799-1.549 1.085-.165-1.884zm.272.389.093 1.065.876-.613-.969-.452zM17.37 6.299l.437.756h-.873l.436-.756zM23.983 14.215l-.226.843-.617-.617.843-.226zM11.154 15.016l.756.436-.756.436v-.873z" style="fill:var(--color2, #ff455b)"/></symbol><symbol id="about_us_3" viewBox="0 0 33 32"><path fill="#fff" d="M19.905 14.049c-.015-.38-.195-.605-.495-.617a.635.635 0 0 0-.445.156.385.385 0 0 1-.067.047v-.29c0-.051-.041-.092-.092-.092s-.092.041-.092.092v.38c0 .039.019.077.05.1s.073.03.11.019a.581.581 0 0 0 .212-.117.46.46 0 0 1 .317-.111c.2.008.307.156.318.439.006.17-.033.308-.111.389a.3.3 0 0 1-.226.086.451.451 0 0 1-.301-.114.546.546 0 0 0-.21-.115c-.038-.011-.079-.004-.11.02s-.05.061-.05.1v.912a.08.08 0 0 1-.079.079h-.583a.393.393 0 0 1 .047-.068.64.64 0 0 0 .16-.424.482.482 0 0 0-.143-.359c-.117-.113-.303-.171-.524-.162-.38.014-.605.195-.617.495a.643.643 0 0 0 .156.446.352.352 0 0 1 .049.072h-.654a.08.08 0 0 1-.079-.079v-.912c0-.039-.019-.076-.05-.1s-.072-.031-.11-.02a.592.592 0 0 0-.216.118.46.46 0 0 1-.317.111c-.2-.008-.307-.156-.318-.439-.006-.17.033-.308.111-.389a.3.3 0 0 1 .226-.086c.111 0 .218.04.301.114a.544.544 0 0 0 .214.116c.037.011.078.003.11-.02s.05-.061.05-.1v-.913a.08.08 0 0 1 .079-.079h.742a.124.124 0 0 0 .119-.16.585.585 0 0 0-.117-.213.46.46 0 0 1-.111-.317c.008-.2.156-.307.439-.318.17-.006.308.033.389.111a.3.3 0 0 1 .086.226c0 .111-.04.218-.114.302a.543.543 0 0 0-.115.211c-.011.038-.004.079.02.11s.061.05.1.05h.671a.08.08 0 0 1 .079.079v.093c0 .051.041.092.092.092s.092-.041.092-.092v-.093a.264.264 0 0 0-.264-.264h-.581a.41.41 0 0 1 .045-.064.642.642 0 0 0 .16-.424.482.482 0 0 0-.143-.359c-.117-.113-.303-.171-.524-.162-.38.014-.605.195-.617.495-.001.024 0 .047.001.07h-.007c-.2-.008-.307-.156-.318-.439-.007-.17.033-.308.111-.389a.3.3 0 0 1 .226-.086c.111 0 .218.04.302.114.047.041.1.074.159.098a.157.157 0 0 0 .216-.145v-.628a.264.264 0 0 0-.264-.264h-.822a.354.354 0 0 1 .044-.063.642.642 0 0 0 .16-.424.482.482 0 0 0-.143-.359c-.117-.113-.303-.171-.524-.162-.38.014-.605.195-.617.495a.643.643 0 0 0 .156.446.385.385 0 0 1 .047.067h-.821a.264.264 0 0 0-.264.264v.581a.41.41 0 0 1-.064-.045.64.64 0 0 0-.423-.16.482.482 0 0 0-.359.143c-.113.117-.171.303-.162.524.014.38.195.605.495.617a.635.635 0 0 0 .445-.156.393.393 0 0 1 .068-.047v.652c0 .146.118.264.264.264h.823a.24.24 0 0 1-.021.034.093.093 0 0 0 .152.106.544.544 0 0 0 .078-.165c.011-.037.003-.078-.02-.11s-.061-.05-.1-.05h-.913a.079.079 0 0 1-.079-.079v-.742a.124.124 0 0 0-.16-.119.585.585 0 0 0-.213.117.46.46 0 0 1-.317.111c-.2-.008-.307-.156-.318-.439-.006-.17.033-.308.111-.389a.3.3 0 0 1 .226-.086c.111 0 .218.04.301.114.06.053.131.092.211.115.038.011.079.004.11-.02s.05-.061.05-.1v-.671a.08.08 0 0 1 .079-.079h.911c.039 0 .077-.019.1-.05s.031-.073.019-.111a.573.573 0 0 0-.117-.212.46.46 0 0 1-.111-.317c.008-.2.156-.307.439-.318.17-.006.308.033.389.111a.3.3 0 0 1 .086.226c0 .111-.04.218-.114.302a.546.546 0 0 0-.115.21c-.011.038-.004.079.02.11s.061.05.1.05h.912a.08.08 0 0 1 .079.079v.583a.393.393 0 0 1-.068-.047.64.64 0 0 0-.424-.16.482.482 0 0 0-.359.143c-.113.117-.171.303-.162.524.014.38.195.605.495.617h.054a.642.642 0 0 0 .114.191.393.393 0 0 1 .047.068h-.652a.264.264 0 0 0-.264.264v.823a.339.339 0 0 1-.066-.046.642.642 0 0 0-.424-.16.482.482 0 0 0-.359.143c-.113.117-.171.303-.162.524.014.38.195.605.495.617a.639.639 0 0 0 .446-.156.42.42 0 0 1 .07-.049v.822c0 .146.118.264.264.264h.698a.157.157 0 0 0 .145-.216.568.568 0 0 0-.099-.161.46.46 0 0 1-.111-.317c.008-.2.156-.307.439-.318.17-.007.308.033.389.111a.3.3 0 0 1 .086.226c0 .111-.04.218-.114.301a.564.564 0 0 0-.098.159.157.157 0 0 0 .144.216h.628a.264.264 0 0 0 .264-.264v-.822a.354.354 0 0 1 .063.044c.117.103.268.16.424.16.145 0 .269-.05.359-.143.113-.117.171-.303.162-.524z" opacity=".5" style="fill:var(--color1, #fff)"/><path d="M10.03 10.759 8.693 9.422l1.827-.489-.489 1.827zm-.123-.459.277-1.033-1.033.277.756.756zM22.66 9.141l1.714.799-1.549 1.085-.165-1.884zm.272.389.093 1.065.876-.613-.969-.452zM17.37 6.299l.437.756h-.873l.436-.756zM23.983 14.215l-.226.843-.617-.617.843-.226zM11.154 15.016l.756.436-.756.436v-.873z" style="fill:var(--color2, #ff455b)"/></symbol><symbol id="services_4" viewBox="0 0 51 32"><path fill="#fff" d="M29.553 9.722h-8.879a1.25 1.25 0 0 0-1.248 1.248v17.757c0 .688.56 1.248 1.248 1.248h8.879a1.25 1.25 0 0 0 1.248-1.248V10.97a1.25 1.25 0 0 0-1.248-1.248zm.655 19.005a.656.656 0 0 1-.655.655h-8.879a.656.656 0 0 1-.655-.655V10.97c0-.361.294-.655.655-.655h8.879c.361 0 .655.294.655.655v17.757z" opacity=".5" style="fill:var(--color1, #fff)"/><path fill="#fff" d="M29.236 26.845h-8.245a.297.297 0 0 0 0 .594h8.245a.297.297 0 0 0 0-.594zM29.236 10.99h-8.245a.297.297 0 0 0 0 .594h8.245a.297.297 0 0 0 0-.594zM25.431 28.113h-.634a.297.297 0 0 0 0 .594h.634a.297.297 0 0 0 0-.594zM28.549 22.964l-.577-6.342a.611.611 0 0 0-.611-.558h-.999v-.338c0-.688-.56-1.248-1.248-1.248s-1.248.56-1.248 1.248v.338h-.999a.61.61 0 0 0-.611.558l-.576 6.342a.613.613 0 0 0 .611.669h5.647a.615.615 0 0 0 .611-.669zm-3.435-7.893c.361 0 .655.294.655.655v.338H24.46v-.338c0-.361.294-.655.655-.655zm2.839 7.962c-.006.007-.013.007-.015.007h-5.647c-.003 0-.009 0-.015-.007s-.006-.013-.005-.016l.576-6.342a.02.02 0 0 1 .02-.019h.999v.655a.297.297 0 0 0 .594 0v-.655h1.309v.655a.297.297 0 0 0 .594 0v-.655h.999c.011 0 .019.008.02.019l.577 6.342c0 .003.001.009-.005.016z" opacity=".5" style="fill:var(--color1, #fff)"/><path d="m4.3 14.338-4.3-4.3 5.873-1.574-1.574 5.873zm-.396-1.474.89-3.32-3.32.889 2.43 2.43zM44.907 9.138l5.511 2.57-4.981 3.488-.53-6.057zm.875 1.25.299 3.424 2.815-1.971-3.115-1.452zM27.9 0l1.403 2.43h-2.806L27.9 0zM49.16 25.449l-.726 2.711-1.984-1.984 2.711-.726zM7.913 28.027l2.43 1.403-2.43 1.403v-2.806z" style="fill:var(--color2, #ff455b)"/></symbol><symbol id="contact_1" viewBox="0 0 20 32"><path d="m9.034 29.125-2.696 2.696-.987-3.682 3.682.987zm-.924.248-2.081-.558.558 2.082 1.524-1.524zM5.773 3.665 7.384.21l2.187 3.123-3.798.332zm.784-.549 2.147-.188-1.236-1.765-.911 1.953zM.044 14.328l1.524-.88v1.76l-1.524-.88zM16 .999l1.7.455-1.244 1.244-.455-1.7zM17.617 26.86l.88-1.524.88 1.524h-1.76z" style="fill:var(--color2, #ff455b)"/><path fill="#fff" d="M10.205 17.478a10.848 10.848 0 0 0 .904.808c1.21.965 2.6 1.644 4.078 1.985a1.78 1.78 0 0 0 1.999-.941l.235-.47a.996.996 0 0 0-.377-1.294l-1.495-.897a.992.992 0 0 0-1.361.34l-.26.433a.197.197 0 0 1-.244.082c-1.553-.621-2.903-1.971-3.524-3.524a.198.198 0 0 1 .082-.244l.432-.26a.99.99 0 0 0 .34-1.361l-.897-1.495a.997.997 0 0 0-1.294-.377l-.47.235a1.781 1.781 0 0 0-.941 1.999c.429 1.861 1.395 3.583 2.793 4.981zm5.139-.469 1.495.897c.265.159.365.5.226.777l-.104.208-2.53-1.518.096-.16a.594.594 0 0 1 .816-.204zM8.53 10.852l.47-.235a.599.599 0 0 1 .777.226l.897 1.495a.594.594 0 0 1-.204.816l-.16.096-.898-1.498a.198.198 0 0 0-.34.204l.901 1.503a.592.592 0 0 0-.181.686c.322.806.842 1.581 1.503 2.242s1.437 1.181 2.242 1.503a.594.594 0 0 0 .687-.182l2.557 1.535a1.386 1.386 0 0 1-1.504.64 9.863 9.863 0 0 1-3.893-1.894 9.98 9.98 0 0 1-.931-.834c-1.291-1.304-2.238-2.95-2.654-4.75a1.385 1.385 0 0 1 .732-1.555z" opacity=".5" style="fill:var(--color1, #fff)"/></symbol><symbol id="branding_63" viewBox="0 0 112 32"><path fill="none" stroke="#989cac" stroke-width="4.426" d="M29.617 16c0 7.52-6.097 13.617-13.617 13.617S2.383 23.52 2.383 16C2.383 8.48 8.48 2.383 16 2.383S29.617 8.48 29.617 16z" style="stroke:var(--color1, #989cac)"/><path fill="none" stroke="#fff" stroke-width=".681" d="M29.617 16c0 7.52-6.097 13.617-13.617 13.617S2.383 23.52 2.383 16C2.383 8.48 8.48 2.383 16 2.383S29.617 8.48 29.617 16z" style="stroke:var(--color1, #fff)"/><path d="M16 2.383a.657.657 0 0 0-.681-.665C7.739 2.073 1.702 8.332 1.702 16c0 7.896 6.401 14.298 14.298 14.298 4.317 0 8.188-1.913 10.809-4.939.246-.284.194-.714-.102-.946s-.722-.18-.97.103a12.906 12.906 0 0 1-9.738 4.42C8.855 28.936 3.063 23.144 3.063 16c0-6.916 5.427-12.565 12.255-12.919a.709.709 0 0 0 .681-.698z" style="fill:var(--color2, #ff455b)"/><path fill="#fff" d="M11.845 18.432c-.515 0-.913-.182-1.195-.545-.278-.364-.417-.884-.417-1.563 0-.498.065-.923.196-1.275s.319-.619.564-.803c.245-.184.537-.276.876-.276.249 0 .49.049.723.147.233.094.441.231.625.411l-.153.3a2.25 2.25 0 0 0-.601-.398 1.425 1.425 0 0 0-.588-.129c-.396 0-.707.178-.931.533-.221.351-.331.848-.331 1.489v.613l-.067-.172a1.28 1.28 0 0 1 .227-.576c.123-.168.276-.294.46-.38.188-.09.396-.135.625-.135.274 0 .513.057.717.172s.364.276.478.484c.114.204.172.443.172.717 0 .266-.059.505-.178.717-.114.208-.276.372-.484.49s-.447.178-.717.178zm-.012-.331c.302 0 .545-.096.729-.288.188-.192.282-.447.282-.766 0-.315-.094-.566-.282-.754-.188-.192-.435-.288-.741-.288-.204 0-.386.045-.545.135a.926.926 0 0 0-.374.368c-.09.155-.135.335-.135.539 0 .212.045.398.135.558a.98.98 0 0 0 .374.368c.159.086.345.129.558.129zm3.527.325c-.278 0-.543-.049-.797-.147s-.47-.235-.65-.411l.159-.3c.2.176.404.308.613.398.212.086.437.129.674.129.319 0 .564-.076.735-.227.176-.155.264-.376.264-.662 0-.294-.092-.513-.276-.656-.18-.147-.445-.221-.797-.221h-.472v-.331h.374c.343 0 .607-.08.79-.239.188-.159.282-.384.282-.674 0-.249-.076-.441-.227-.576-.151-.139-.364-.208-.637-.208-.225 0-.439.045-.643.135a2.336 2.336 0 0 0-.613.392l-.159-.3c.176-.176.388-.313.637-.411.253-.098.515-.147.784-.147.253 0 .474.045.662.135s.331.219.429.386c.102.163.153.36.153.588-.004.27-.078.502-.221.699a.995.995 0 0 1-.576.392l-.024-.061c.298.061.525.186.68.374.155.184.233.425.233.723 0 .376-.125.674-.374.895-.249.216-.584.325-1.005.325zM18.948 17.044a.637.637 0 0 1-.534-.253c-.13-.172-.195-.434-.195-.786 0-.356.065-.616.195-.782.13-.168.308-.253.534-.253s.402.084.529.253c.13.165.195.426.195.782 0 .353-.065.615-.195.786a.626.626 0 0 1-.529.253zm0-.229a.355.355 0 0 0 .334-.191c.073-.13.11-.337.11-.62 0-.28-.037-.483-.11-.61-.07-.13-.181-.195-.334-.195s-.265.065-.338.195c-.07.127-.105.33-.105.61 0 .283.035.489.105.62a.364.364 0 0 0 .338.191zm-.052 1.568 1.964-3.393h.272l-1.959 3.393h-.276zm2.182.019a.637.637 0 0 1-.534-.253c-.13-.172-.195-.434-.195-.786 0-.356.065-.616.195-.782.13-.168.308-.253.534-.253s.402.084.529.253c.13.165.195.426.195.782 0 .353-.065.615-.195.786a.626.626 0 0 1-.529.253zm0-.229a.355.355 0 0 0 .334-.191c.073-.13.11-.337.11-.62 0-.28-.037-.483-.11-.61-.07-.13-.181-.195-.334-.195s-.265.065-.338.195c-.07.127-.105.33-.105.61 0 .283.035.489.105.62a.364.364 0 0 0 .338.191z" style="fill:var(--color1, #fff)"/></symbol><symbol id="phone" viewBox="0 0 32 32"><path fill="none" stroke-width="1.28" d="M16 .64C24.483.64 31.36 7.517 31.36 16S24.483 31.36 16 31.36.64 24.483.64 16 7.517.64 16 .64z"/><path fill="none" stroke-linecap="round" stroke-linejoin="round" stroke-width="1.28" d="M19.2 9.6h-6.4a1.28 1.28 0 0 0-1.28 1.28v10.24c0 .707.573 1.28 1.28 1.28h6.4a1.28 1.28 0 0 0 1.28-1.28V10.88A1.28 1.28 0 0 0 19.2 9.6zM16 19.84h.006"/></symbol><symbol id="services_1" viewBox="0 0 51 32"><path fill="#fff" d="M23.713 27.212v-5.18a.323.323 0 0 0-.323-.323h-2.155a.323.323 0 1 0 0 .646h1.831v4.857a1.401 1.401 0 0 0-1.077 1.362 1.402 1.402 0 0 0 2.801 0c0-.661-.46-1.216-1.077-1.362zm-.323 2.116a.755.755 0 1 1 .001-1.51.755.755 0 0 1-.001 1.51zM27.161 27.212v-5.18a.323.323 0 0 0-.323-.323h-2.155a.323.323 0 0 0 0 .646h1.831v4.857a1.401 1.401 0 0 0-1.077 1.362 1.402 1.402 0 0 0 2.801 0c0-.661-.46-1.216-1.077-1.362zm-.323 2.116a.755.755 0 1 1 .001-1.51.755.755 0 0 1-.001 1.51zM32.655 25.019c-.661 0-1.216.46-1.362 1.077h-.684v-4.065a.323.323 0 0 0-.323-.323h-2.155a.323.323 0 0 0 0 .646h1.831v4.065c0 .179.145.323.323.323h1.008a1.401 1.401 0 0 0 2.763-.324c0-.773-.628-1.4-1.401-1.4zm0 2.155a.755.755 0 1 1 .001-1.51.755.755 0 0 1-.001 1.51z" opacity=".5" style="fill:var(--color1, #fff)"/><path fill="#fff" d="M34.471 16.683a3.513 3.513 0 0 0-1.685-1.146 6.076 6.076 0 0 0-1.803-4.042 6.079 6.079 0 0 0-4.308-1.774 6.124 6.124 0 0 0-5.217 2.921 2.799 2.799 0 0 0-3.566 2.074 3.89 3.89 0 0 0-2.904 3.757 3.885 3.885 0 0 0 3.881 3.881h.751v3.741h-.684a1.401 1.401 0 0 0-2.763.323 1.401 1.401 0 0 0 2.763.324h1.008a.323.323 0 0 0 .323-.323v-4.388a.323.323 0 0 0-.323-.323H18.87a3.238 3.238 0 0 1-3.235-3.235 3.241 3.241 0 0 1 2.602-3.173.324.324 0 0 0 .258-.275 2.15 2.15 0 0 1 2.978-1.689.323.323 0 0 0 .411-.14 5.479 5.479 0 0 1 4.792-2.829c2.99 0 5.444 2.432 5.471 5.421a.324.324 0 0 0 .25.312 2.826 2.826 0 0 1 2.198 2.767 2.844 2.844 0 0 1-2.841 2.841h-.176a.323.323 0 0 0 0 .646h.176a3.49 3.49 0 0 0 3.487-3.487 3.49 3.49 0 0 0-.77-2.185zM17.573 27.174a.755.755 0 1 1 .001-1.51.755.755 0 0 1-.001 1.51z" opacity=".5" style="fill:var(--color1, #fff)"/><path fill="#fff" d="M30.746 16.125h.003a.324.324 0 0 0 .32-.326 4.338 4.338 0 0 0-.299-1.548c-.065-.166-.252-.248-.419-.184s-.248.252-.183.419c.165.422.25.865.254 1.319.002.178.146.32.323.32zM29.564 13.46a.323.323 0 0 0 .498-.412 4.383 4.383 0 0 0-3.388-1.603.323.323 0 0 0 0 .646 3.74 3.74 0 0 1 2.889 1.368z" opacity=".5" style="fill:var(--color1, #fff)"/><path d="m4.3 14.338-4.3-4.3 5.873-1.574-1.574 5.873zm-.396-1.474.89-3.32-3.32.889 2.43 2.43zM44.907 9.138l5.511 2.57-4.981 3.488-.53-6.057zm.875 1.25.299 3.424 2.815-1.971-3.115-1.452zM27.9 0l1.403 2.43h-2.806L27.9 0zM49.16 25.449l-.726 2.711-1.984-1.984 2.711-.726zM7.913 28.027l2.43 1.403-2.43 1.403v-2.806z" style="fill:var(--color2, #ff455b)"/></symbol><symbol id="burger_menu" viewBox="0 0 40 32"><path d="M0 2a2 2 0 1 1 3.999-.001A2 2 0 0 1 0 2zM0 16a2 2 0 1 1 3.999-.001A2 2 0 0 1 0 16zM0 30a2 2 0 1 1 3.999-.001A2 2 0 0 1 0 30zM28 4H12a2 2 0 1 1 0-4h16a2 2 0 1 1 0 4zM28 18H12a2 2 0 1 1 0-4h16a2 2 0 1 1 0 4zM28 32H12a2 2 0 1 1 0-4h16a2 2 0 1 1 0 4zM36 2a2 2 0 1 1 3.999-.001A2 2 0 0 1 36 2zM36 16a2 2 0 1 1 3.999-.001A2 2 0 0 1 36 16zM36 30a2 2 0 1 1 3.999-.001A2 2 0 0 1 36 30z" opacity=".8"/></symbol><symbol id="logo" viewBox="0 0 110 32"><path d="M43.863 23.975V8.036h3.492v15.939h-3.492zM58.32 24.177c-1.701 0-3.171-.328-4.41-.985a6.906 6.906 0 0 1-2.843-2.821c-.657-1.224-.985-2.686-.985-4.388 0-1.671.328-3.119.985-4.343.672-1.224 1.612-2.164 2.82-2.821s2.634-.985 4.276-.985c1.134 0 2.201.157 3.201.47s1.821.754 2.462 1.321l-1.119 2.507c-.761-.537-1.492-.925-2.194-1.164a6.838 6.838 0 0 0-2.261-.358c-1.537 0-2.694.448-3.47 1.343-.761.895-1.142 2.239-1.142 4.029 0 1.836.396 3.216 1.187 4.141.806.91 2.022 1.366 3.649 1.366.567 0 1.134-.045 1.701-.134a10.23 10.23 0 0 0 1.679-.448l-.761 1.142v-4.432h-3.134v-2.44h6.29v7.813c-.522.254-1.112.47-1.768.649a14.15 14.15 0 0 1-2.037.403c-.701.09-1.41.134-2.127.134zM67.232 23.975V8.036h10.991v2.709h-7.566v3.761h7.096v2.731h-7.096v4.029h7.566v2.709H67.232zM80.633 23.975V8.036h2.574l8.596 10.969-.649.425V8.036h3.291v15.939h-2.597l-8.551-10.924.604-.47v11.394h-3.268zM103.214 24.177a13.92 13.92 0 0 1-2.373-.201 11.944 11.944 0 0 1-2.149-.627 7.545 7.545 0 0 1-1.746-1.007l1.142-2.507c.791.552 1.612.963 2.462 1.231s1.746.403 2.686.403c1.015 0 1.791-.164 2.328-.492.552-.328.828-.784.828-1.366 0-.343-.112-.634-.336-.873s-.582-.448-1.075-.627c-.492-.179-1.149-.358-1.97-.537-1.03-.209-1.91-.455-2.641-.739s-1.328-.612-1.791-.985a3.421 3.421 0 0 1-.985-1.298c-.209-.507-.313-1.089-.313-1.746 0-.94.261-1.783.784-2.53.537-.761 1.276-1.358 2.216-1.791.955-.433 2.067-.649 3.336-.649.761 0 1.5.075 2.216.224.731.149 1.403.358 2.015.627s1.127.597 1.544.985l-1.119 2.507c-.716-.552-1.463-.963-2.239-1.231s-1.567-.403-2.373-.403c-.91 0-1.634.187-2.172.56-.537.358-.806.851-.806 1.477 0 .343.104.634.313.873s.552.455 1.03.649c.492.179 1.164.366 2.015.56 1 .209 1.865.455 2.597.739s1.328.612 1.791.985c.478.358.828.784 1.052 1.276.224.478.336 1.03.336 1.656 0 1-.261 1.866-.784 2.597-.522.716-1.276 1.276-2.261 1.679-.985.388-2.171.582-3.559.582zM10.172 31.877V0h11.193c3.432 0 6.358.627 8.775 1.88 2.418 1.224 4.253 3.029 5.507 5.417 1.283 2.358 1.925 5.223 1.925 8.596 0 3.403-.642 6.298-1.925 8.686-1.284 2.358-3.134 4.164-5.552 5.417s-5.328 1.88-8.73 1.88H10.172zm4.612-3.85h6.268c3.91 0 6.85-1.015 8.82-3.044s2.955-5.059 2.955-9.088c0-8.029-3.925-12.043-11.775-12.043h-6.268v24.176z"/><path d="M31.08 27.416c0 2.155-2.219 3.596-4.187 2.719L0 18.162v-3.798L26.933 2.373c1.95-.868 4.147.559 4.147 2.693L3.405 16.896v-1.397L31.08 27.416z"/></symbol><symbol id="polygon" viewBox="0 0 32 32"><path fill="#ff455b" d="M23.248 31.725.023 8.5 31.749-.001l-8.501 31.726zm-2.134-7.964 4.805-17.932-17.932 4.805 13.127 13.127z"/></symbol><symbol id="search" viewBox="0 0 32 32"><path fill="none" stroke="#fff" stroke-linecap="round" stroke-linejoin="round" stroke-width="3.2" d="M14.667 25.333c5.891 0 10.667-4.776 10.667-10.667S20.558 3.999 14.667 3.999 4 8.775 4 14.666s4.776 10.667 10.667 10.667zM28 28l-5.8-5.8" opacity=".5" style="stroke:var(--color1, #fff)"/></symbol><symbol id="icon_85" viewBox="0 0 112 32"><path fill="none" stroke="#fff" stroke-width="4.426" d="M29.617 16c0 7.52-6.097 13.617-13.617 13.617S2.383 23.52 2.383 16C2.383 8.48 8.48 2.383 16 2.383S29.617 8.48 29.617 16z" style="stroke:var(--color1, #fff)"/><path d="M16 2.383a.657.657 0 0 0-.681-.665C7.739 2.073 1.702 8.332 1.702 16c0 7.896 6.401 14.298 14.298 14.298S30.298 23.897 30.298 16c0-4.417-2.003-8.366-5.149-10.989-.289-.241-.717-.18-.944.119s-.167.726.121.968a12.909 12.909 0 0 1 4.61 9.901c0 7.144-5.792 12.936-12.936 12.936S3.064 23.143 3.064 15.999c0-6.916 5.427-12.565 12.255-12.919A.709.709 0 0 0 16 2.382z" style="fill:var(--color2, #ff455b)"/><path d="M11.711 18.426c-.315 0-.586-.047-.815-.141a1.239 1.239 0 0 1-.533-.411 1.1 1.1 0 0 1-.184-.637c0-.302.102-.554.306-.754.208-.204.484-.331.827-.38l-.037.086c-.323-.061-.57-.186-.741-.374a1.001 1.001 0 0 1-.257-.692c0-.233.059-.435.178-.607.123-.172.29-.304.502-.398.216-.098.468-.147.754-.147s.535.049.748.147c.216.094.384.227.502.398.123.172.184.374.184.607 0 .27-.086.5-.257.692-.172.188-.417.313-.735.374l-.043-.086c.36.045.637.17.833.374.2.204.3.458.3.76 0 .245-.063.458-.19.637a1.197 1.197 0 0 1-.527.411c-.229.094-.5.141-.815.141zm0-.331c.372 0 .656-.074.852-.221.196-.151.294-.37.294-.656 0-.27-.108-.48-.325-.631-.212-.151-.486-.243-.821-.276-.335.033-.611.125-.827.276a.733.733 0 0 0-.319.631c0 .286.098.505.294.656.196.147.48.221.852.221zm0-2.065c.315-.029.568-.12.76-.276s.288-.36.288-.613c0-.261-.092-.466-.276-.613-.184-.151-.441-.227-.772-.227s-.588.076-.772.227c-.184.147-.276.351-.276.613 0 .253.096.458.288.613s.445.247.76.276zm3.772 2.396c-.261 0-.519-.049-.772-.147s-.47-.235-.65-.411l.159-.3c.2.172.404.302.613.392s.425.135.65.135c.319 0 .57-.094.754-.282.188-.192.282-.447.282-.766 0-.204-.041-.384-.123-.539a.874.874 0 0 0-.349-.368.99.99 0 0 0-.527-.135c-.229 0-.429.047-.601.141-.172.09-.321.231-.447.423h-.294V14.02h2.561v.325h-2.181v1.918l-.123-.018c.114-.18.268-.321.46-.423s.409-.153.65-.153c.282 0 .523.059.723.178.204.114.36.276.466.484.11.208.165.447.165.717s-.057.509-.172.717a1.229 1.229 0 0 1-.49.49 1.572 1.572 0 0 1-.754.172zM18.948 17.044a.637.637 0 0 1-.534-.253c-.13-.172-.195-.434-.195-.786 0-.356.065-.616.195-.782.13-.168.308-.253.534-.253s.402.084.529.253c.13.165.195.426.195.782 0 .353-.065.615-.195.786a.626.626 0 0 1-.529.253zm0-.229a.355.355 0 0 0 .334-.191c.073-.13.11-.337.11-.62 0-.28-.037-.483-.11-.61-.07-.13-.181-.195-.334-.195s-.265.065-.338.195c-.07.127-.105.33-.105.61 0 .283.035.489.105.62a.364.364 0 0 0 .338.191zm-.052 1.568 1.964-3.393h.272l-1.959 3.393h-.276zm2.182.019a.637.637 0 0 1-.534-.253c-.13-.172-.195-.434-.195-.786 0-.356.065-.616.195-.782.13-.168.308-.253.534-.253s.402.084.529.253c.13.165.195.426.195.782 0 .353-.065.615-.195.786a.626.626 0 0 1-.529.253zm0-.229a.355.355 0 0 0 .334-.191c.073-.13.11-.337.11-.62 0-.28-.037-.483-.11-.61-.07-.13-.181-.195-.334-.195s-.265.065-.338.195c-.07.127-.105.33-.105.61 0 .283.035.489.105.62a.364.364 0 0 0 .338.191z" style="fill:var(--color1, #fff)"/></symbol><symbol id="icon-send---3" viewBox="0 0 55 32"><path d="M4.666 15.56 0 10.894l6.374-1.708-1.708 6.374zm-.429-1.599.965-3.603-3.603.965 2.637 2.637zM48.734 9.916l5.981 2.789-5.405 3.785-.575-6.574zm.951 1.357.325 3.716 3.055-2.139-3.38-1.576zM27.433 0l1.523 2.638H25.91L27.433 0zM48.973 27.619l-.788 2.942-2.154-2.154 2.942-.788zM6.795 29.093l1.951 1.126-1.951 1.126v-2.253z"/></symbol><symbol id="strategy_87" viewBox="0 0 112 32"><path fill="none" stroke="#fff" stroke-width="4.426" d="M29.617 16c0 7.52-6.097 13.617-13.617 13.617S2.383 23.52 2.383 16C2.383 8.48 8.48 2.383 16 2.383S29.617 8.48 29.617 16z" style="stroke:var(--color1, #fff)"/><path fill="none" stroke="#fff" stroke-width=".681" d="M29.617 16c0 7.52-6.097 13.617-13.617 13.617S2.383 23.52 2.383 16C2.383 8.48 8.48 2.383 16 2.383S29.617 8.48 29.617 16z" style="stroke:var(--color1, #fff)"/><path d="M16 2.383a.657.657 0 0 0-.681-.665C7.739 2.073 1.702 8.332 1.702 16c0 7.896 6.401 14.298 14.298 14.298S30.298 23.897 30.298 16c0-4.417-2.003-8.366-5.149-10.989-.289-.241-.717-.18-.944.119s-.167.726.121.968a12.909 12.909 0 0 1 4.61 9.901c0 7.144-5.792 12.936-12.936 12.936S3.064 23.143 3.064 15.999c0-6.916 5.427-12.565 12.255-12.919A.709.709 0 0 0 16 2.382z" style="fill:var(--color2, #000)"/><path fill="#fff" d="M11.711 18.426c-.315 0-.586-.047-.815-.141a1.239 1.239 0 0 1-.533-.411 1.1 1.1 0 0 1-.184-.637c0-.302.102-.554.306-.754.208-.204.484-.331.827-.38l-.037.086c-.323-.061-.57-.186-.741-.374a1.001 1.001 0 0 1-.257-.692c0-.233.059-.435.178-.607.123-.172.29-.304.502-.398.216-.098.468-.147.754-.147s.535.049.748.147c.216.094.384.227.502.398.123.172.184.374.184.607 0 .27-.086.5-.257.692-.172.188-.417.313-.735.374l-.043-.086c.36.045.637.17.833.374.2.204.3.458.3.76 0 .245-.063.458-.19.637a1.197 1.197 0 0 1-.527.411c-.229.094-.5.141-.815.141zm0-.331c.372 0 .656-.074.852-.221.196-.151.294-.37.294-.656 0-.27-.108-.48-.325-.631-.212-.151-.486-.243-.821-.276-.335.033-.611.125-.827.276a.733.733 0 0 0-.319.631c0 .286.098.505.294.656.196.147.48.221.852.221zm0-2.065c.315-.029.568-.12.76-.276s.288-.36.288-.613c0-.261-.092-.466-.276-.613-.184-.151-.441-.227-.772-.227s-.588.076-.772.227c-.184.147-.276.351-.276.613 0 .253.096.458.288.613s.445.247.76.276zm3.006 2.353h-.411l2.157-4.222.049.184h-2.531v-.325h2.806v.282l-2.071 4.081zM18.948 17.044a.637.637 0 0 1-.534-.253c-.13-.172-.195-.434-.195-.786 0-.356.065-.616.195-.782.13-.168.308-.253.534-.253s.402.084.529.253c.13.165.195.426.195.782 0 .353-.065.615-.195.786a.626.626 0 0 1-.529.253zm0-.229a.355.355 0 0 0 .334-.191c.073-.13.11-.337.11-.62 0-.28-.037-.483-.11-.61-.07-.13-.181-.195-.334-.195s-.265.065-.338.195c-.07.127-.105.33-.105.61 0 .283.035.489.105.62a.364.364 0 0 0 .338.191zm-.052 1.568 1.964-3.393h.272l-1.959 3.393h-.276zm2.182.019a.637.637 0 0 1-.534-.253c-.13-.172-.195-.434-.195-.786 0-.356.065-.616.195-.782.13-.168.308-.253.534-.253s.402.084.529.253c.13.165.195.426.195.782 0 .353-.065.615-.195.786a.626.626 0 0 1-.529.253zm0-.229a.355.355 0 0 0 .334-.191c.073-.13.11-.337.11-.62 0-.28-.037-.483-.11-.61-.07-.13-.181-.195-.334-.195s-.265.065-.338.195c-.07.127-.105.33-.105.61 0 .283.035.489.105.62a.364.364 0 0 0 .338.191z" style="fill:var(--color1, #fff)"/></symbol><symbol id="icon-send" viewBox="0 0 32 32"><path d="M30.182 1.818a1.2 1.2 0 0 1 0 1.697L15.515 18.182a1.2 1.2 0 1 1-1.697-1.697L28.485 1.818a1.2 1.2 0 0 1 1.697 0z" opacity=".5"/><path d="M30.182 1.818a1.2 1.2 0 0 1 .284 1.245L21.133 29.73a1.201 1.201 0 0 1-2.229.091l-5.146-11.578L2.18 13.097a1.2 1.2 0 0 1 .091-2.23l26.667-9.333a1.2 1.2 0 0 1 1.245.284zM5.92 12.133l9.234 4.104c.271.121.489.338.609.609l4.104 9.234 7.51-21.457-21.457 7.51z" opacity=".5"/></symbol><symbol id="icon-close" viewBox="0 0 33 32"><path d="m16.303 16 15.085 15.085.754-.754-15.085-15.085L31.388.915l-.754-.754-14.331 14.331L1.972.161l-.754.754 14.331 14.331L.464 30.331l.754.754L16.303 16z" opacity=".3"/></symbol><symbol id="services_6" viewBox="0 0 51 32"><path fill="#fff" d="M26.369 15.76a.447.447 0 0 1-.447-.447c0-1.556-1.266-2.821-2.821-2.821s-2.821 1.265-2.821 2.821a.447.447 0 1 1-.894 0c0-2.049 1.667-3.716 3.716-3.716s3.716 1.667 3.716 3.716c0 .247-.2.447-.447.447z" opacity=".5" style="fill:var(--color1, #fff)"/><path fill="#fff" d="M28.014 17.287a.446.446 0 0 1-.427-.58 4.701 4.701 0 0 0-4.486-6.09 4.702 4.702 0 0 0-4.486 6.09.448.448 0 0 1-.855.265 5.597 5.597 0 0 1 5.34-7.251 5.597 5.597 0 0 1 5.34 7.251.448.448 0 0 1-.427.315z" opacity=".5" style="fill:var(--color1, #fff)"/><path fill="#fff" d="M23.154 14.391c.555 0 1.084.426 1.084.948l-.003 5.008-.001.006v.206a.178.178 0 0 0 .356 0v-.053a1.094 1.094 0 0 1 2.189.019l.001.793a.175.175 0 1 0 .351 0v-.045c0-.55.535-.935 1.085-.935.605 0 1.092.49 1.092 1.095l.002.802a.17.17 0 1 0 .342 0l-.001-.061c0-.5.542-.884 1.074-.884.604 0 1.095.49 1.095 1.095l.003 2.011c0 1.87-.727 4.687-5.205 4.687-5.336 0-6.048-2.705-5.966-5.62a1.153 1.153 0 0 1 1.118-1.118v1.289c0 .162.112.181.146.181s.142-.018.142-.181v-8.146c0-.605.49-1.095 1.095-1.095zm0-.895a1.99 1.99 0 0 0-1.989 1.989v6.064c-.732.245-1.379.921-1.406 1.886-.043 1.51.081 3.42 1.427 4.804 1.136 1.168 2.913 1.736 5.434 1.736 2.267 0 3.944-.667 4.983-1.982.73-.924 1.116-2.168 1.116-3.6l-.003-2.013a1.991 1.991 0 0 0-1.989-1.988c-.249 0-.502.048-.738.137a1.99 1.99 0 0 0-1.771-1.089c-.275 0-.537.052-.776.146a1.992 1.992 0 0 0-2.309-.976v-.567l.001-1.854c0-.505 0-.735-.002-.853h.002c0-.999-.906-1.842-1.979-1.842z" opacity=".5" style="fill:var(--color1, #fff)"/><path d="m4.3 14.338-4.3-4.3 5.873-1.574-1.574 5.873zm-.396-1.474.89-3.32-3.32.889 2.43 2.43zM44.907 9.138l5.511 2.57-4.981 3.488-.53-6.057zm.875 1.25.299 3.424 2.815-1.971-3.115-1.452zM27.9 0l1.403 2.43h-2.806L27.9 0zM49.16 25.449l-.726 2.711-1.984-1.984 2.711-.726zM7.913 28.027l2.43 1.403-2.43 1.403v-2.806z" style="fill:var(--color2, #ff455b)"/></symbol><symbol id="about_us_2" viewBox="0 0 33 32"><path fill="#fff" d="M18.066 9.823a1.967 1.967 0 1 0-2.589 2.96c.19.163.298.408.298.675v.1a.29.29 0 0 0 .197.274v.909c0 .188.134.345.311.38l.054.268a.29.29 0 0 0 .284.233h.268a.29.29 0 0 0 .284-.233l.054-.268a.39.39 0 0 0 .311-.38v-.909a.29.29 0 0 0 .197-.274v-.109c0-.256.116-.506.32-.685a1.966 1.966 0 0 0 .011-2.941zm-1.073 5.53a.105.105 0 0 1-.103.084h-.268a.105.105 0 0 1-.103-.084l-.045-.224h.564l-.045.224zm.361-1.29-.111.008a.092.092 0 0 0-.085.099.092.092 0 0 0 .092.086h.007l.098-.007v.21l-.112.008a.093.093 0 0 0 .007.185h.007l.098-.007v.098a.204.204 0 0 1-.204.204h-.789a.204.204 0 0 1-.204-.204v-.013l.703-.05c.051-.004.089-.048.086-.099s-.048-.089-.099-.085l-.69.049v-.21l.703-.05c.051-.004.089-.048.086-.099s-.048-.089-.099-.086l-.69.049v-.302h1.196v.216zm-.712-2.189h.021v.401c0 .051.041.092.092.092s.092-.041.092-.092v-.401h.021a.19.19 0 0 0 .188-.159l.072-.433h.02c.121 0 .186-.033.239-.059.026-.013.048-.024.076-.031L17 12.349a.578.578 0 0 0-.042.217v.004a.204.204 0 0 1-.408 0v-.004a.574.574 0 0 0-.042-.217l-.463-1.157c.028.007.049.018.075.031.053.026.118.059.238.059h.021l.072.433a.19.19 0 0 0 .188.159zm-.08-.632.037-.018c.046-.023.079-.04.156-.04s.11.017.156.04l.038.018-.074.443c0 .003-.003.005-.006.005h-.227c-.003 0-.006-.002-.006-.005l-.074-.443zm.397 1.659v.761h-.407v-.761a.383.383 0 0 0 .408 0zm.974-.275a1.102 1.102 0 0 0-.382.823v.109a.105.105 0 0 1-.105.105h-.302v-1.095c0-.051.01-.101.029-.149l.556-1.391c.019-.047-.004-.101-.051-.12s-.101.004-.12.051l-.016.041a.478.478 0 0 0-.235.059c-.046.023-.079.04-.156.04s-.11-.017-.156-.04c-.053-.026-.118-.059-.239-.059s-.186.033-.238.059c-.046.023-.079.04-.156.04s-.11-.017-.156-.04a.478.478 0 0 0-.235-.059l-.016-.041c-.019-.047-.073-.07-.12-.051s-.07.073-.051.12l.556 1.391a.403.403 0 0 1 .029.149v1.095h-.302a.105.105 0 0 1-.105-.105v-.1c0-.32-.132-.617-.363-.815a1.788 1.788 0 0 1-.609-1.581 1.788 1.788 0 0 1 1.77-1.555 1.783 1.783 0 0 1 1.175 3.118z" opacity=".5" style="fill:var(--color1, #fff)"/><path d="M10.03 10.759 8.693 9.422l1.827-.489-.489 1.827zm-.123-.459.277-1.033-1.033.277.756.756zM22.66 9.141l1.714.799-1.549 1.085-.165-1.884zm.272.389.093 1.065.876-.613-.969-.452zM17.37 6.299l.437.756h-.873l.436-.756zM23.983 14.215l-.226.843-.617-.617.843-.226zM11.154 15.016l.756.436-.756.436v-.873z" style="fill:var(--color2, #ff455b)"/></symbol><symbol id="icon-Vector" viewBox="0 0 44 32"><path fill="none" stroke="#ff455b" stroke-linecap="round" stroke-linejoin="round" stroke-width="4.923" d="M41.846 2.462 14.769 29.539 2.461 17.231" style="stroke:var(--color4, #ff455b)"/></symbol><symbol id="icon_blog" viewBox="0 0 32 32">
<path fill="none" stroke="#989cac" style="stroke: var(--color1, #989cac)" stroke-linejoin="round" stroke-linecap="round" stroke-miterlimit="4" stroke-width="1.7778" d="M24 29.333c2.209 0 4-1.791 4-4s-1.791-4-4-4c-2.209 0-4 1.791-4 4s1.791 4 4 4z"></path>
<path fill="none" stroke="#989cac" style="stroke: var(--color1, #989cac)" stroke-linejoin="round" stroke-linecap="round" stroke-miterlimit="4" stroke-width="1.7778" d="M8 20c2.209 0 4-1.791 4-4s-1.791-4-4-4-4 1.791-4 4c0 2.209 1.791 4 4 4z"></path>
<path fill="none" stroke="#989cac" style="stroke: var(--color1, #989cac)" stroke-linejoin="round" stroke-linecap="round" stroke-miterlimit="4" stroke-width="1.7778" d="M11.453 18.014l9.107 5.307"></path>
<path fill="none" stroke="#989cac" style="stroke: var(--color1, #989cac)" stroke-linejoin="round" stroke-linecap="round" stroke-miterlimit="4" stroke-width="1.7778" d="M24 10.667c2.209 0 4-1.791 4-4s-1.791-4-4-4c-2.209 0-4 1.791-4 4s1.791 4 4 4z"></path>
<path fill="none" stroke="#989cac" style="stroke: var(--color1, #989cac)" stroke-linejoin="round" stroke-linecap="round" stroke-miterlimit="4" stroke-width="1.7778" d="M20.547 8.68l-9.093 5.307"></path>
</symbol><symbol id="icon_phone_desktop" viewBox="0 0 31 32">
<path fill="none" opacity="0.5" stroke-linejoin="round" stroke-linecap="round" stroke-miterlimit="4" stroke-width="2.56" d="M21.76 3.2h-12.8c-1.414 0-2.56 1.146-2.56 2.56v20.48c0 1.414 1.146 2.56 2.56 2.56h12.8c1.414 0 2.56-1.146 2.56-2.56v-20.48c0-1.414-1.146-2.56-2.56-2.56z"></path>
<path fill="none" opacity="0.5" stroke-linejoin="round" stroke-linecap="round" stroke-miterlimit="4" stroke-width="2.56" d="M15.36 23.68h0.013"></path>
</symbol></defs></svg>